<svg viewBox="0 0 91 91" xml:space="preserve" xmlns="http://www.w3.org/2000/svg"><path d="M64.501 41.728c-1.25-1.273-8.891-7.173-11.419-8.834-5.48-3.601-11.287-6.697-16.801-10.254-2.157-1.392-5.14.428-5.092 2.922.183 9.706.502 35.322.532 38.427.012 1.336-.168 2.985.227 4.291.536 1.781 2.951 3.163 4.666 1.897 10.373-7.658 21.555-14.232 32.188-21.53 4.611-3.163.122-9.607-4.301-6.919zm-6.94.187c1.318.709 2.774 1.32 4.21 1.962-7.582 6.152-15.566 11.869-23.577 17.474.024-2.582.044-5.167.059-7.748.04-7.325.104-14.673-.081-22.004 3.724 2.143 7.499 4.216 11.325 6.143a341.43 341.43 0 0 1 8.064 4.173z" fill="#e8e8e8" class="fill-000000"></path><path d="M43.832 1.828c-1.306-.024-2.258.522-2.858 1.324C23.948 2.786 8.145 17.341 2.613 32.554c-5.956 16.386-.171 35.66 13.032 46.847 15 12.713 38.843 12.363 55.442 2.746 15.495-8.975 22.427-27.884 18.616-45.062C85.055 16.132 64.714 2.198 43.832 1.828zm28.815 72.103C59.862 84.49 37.121 86.776 22.978 77.854 10.44 69.939 3.125 53.892 5.967 39.257c1.684-8.655 6.466-16.264 12.821-22.276 6.201-5.863 13.53-9.047 21.424-11.71-.139 1.995 1.066 4.105 3.62 4.08 15.842-.167 31.835 8.737 38.295 23.559 5.961 13.679 2.097 31.461-9.48 41.021z" fill="#e8e8e8" class="fill-000000"></path></svg>